<svg xmlns="http://www.w3.org/2000/svg" viewBox="0 0 389.95 389.95"><defs><style>.cls-1{fill:#333;}.cls-2{fill:#f55;}.cls-3{fill:#fff;}</style></defs><g id="Layer_2" data-name="Layer 2"><g id="Layer_1-2" data-name="Layer 1"><circle class="cls-1" cx="194.97" cy="194.97" r="194.97"/><path class="cls-2" d="M291,162l16.61-43.76a2.92,2.92,0,0,0-2.74-4H235a2.92,2.92,0,0,0-2.74,1.89l-16.61,43.75a2.93,2.93,0,0,0,2.74,4h69.82A2.92,2.92,0,0,0,291,162Z"/><path class="cls-2" d="M262.67,236.56l16.45-43.34a3.13,3.13,0,0,0-2.93-4.24H206.8a3.11,3.11,0,0,0-2.92,2l-16.46,43.34a3.13,3.13,0,0,0,2.93,4.24h69.39A3.14,3.14,0,0,0,262.67,236.56Z"/><path class="cls-2" d="M176.27,263.72l-19.34,50.95H233l17.77-46.83a3,3,0,0,0-2.84-4.12Z"/><path class="cls-3" d="M233,314.67H156.93L82.35,118.2a2.92,2.92,0,0,1,2.73-4h69.83a2.94,2.94,0,0,1,2.74,1.89Z"/></g></g></svg>