<svg>
  <path d="M4,11h6a1,1,0,0,0,1-1V4a1,1,0,0,0-1-1H4A1,1,0,0,0,3,4v6A1,1,0,0,0,4,11ZM4,21h6a1,1,0,0,0,1-1V14a1,1,0,0,0-1-1H4a1,1,0,0,0-1,1v6A1,1,0,0,0,4,21Zm10,0h6a1,1,0,0,0,1-1V14a1,1,0,0,0-1-1H14a1,1,0,0,0-1,1v6A1,1,0,0,0,14,21ZM13,4v6a1,1,0,0,0,1,1h6a1,1,0,0,0,1-1V4a1,1,0,0,0-1-1H14A1,1,0,0,0,13,4Zm6.08,5.87H14.92a.74.74,0,0,1-.74-.74h0a.74.74,0,0,1,.74-.74h4.16a.74.74,0,0,1,.74.74h0A.74.74,0,0,1,19.08,9.87Zm0,10H14.92a.74.74,0,0,1-.74-.73h0a.74.74,0,0,1,.74-.74h4.16a.74.74,0,0,1,.74.74h0A.74.74,0,0,1,19.08,19.87Zm-10,0H4.92a.74.74,0,0,1-.74-.73h0a.74.74,0,0,1,.74-.74H9.08a.74.74,0,0,1,.74.74h0A.74.74,0,0,1,9.08,19.87Zm0-10H4.92a.74.74,0,0,1-.74-.74h0a.74.74,0,0,1,.74-.74H9.08a.74.74,0,0,1,.74.74h0A.74.74,0,0,1,9.08,9.87Z"/>
</svg>